<svg id="Layer_1" data-name="Layer 1" xmlns="http://www.w3.org/2000/svg" viewBox="0 0 187.26 720"><path d="M845.87,720c-8.86-19.06-9.36-38.82-4.79-59,2.37-10.47-.17-15.8-10.09-20.52a36,36,0,0,0-5.27-2.29c-14.29-4.18-22.36-14-25.78-28.66,7,1.32,13.95,2.22,20.67,4,9.28,2.41,13.94,9.27,16.49,18.21,1.4,4.9,3.93,9.49,5.95,14.22l2.05-.57q7.78-18.74,15.57-37.46c5.63-13.52,12.65-25.08,27.43-31.47,7.21-3.12,13.32-9.48,21.82-9.41,7.67.06,15.33,1.3,24.17,2.13-4.87,9.22-11.21,12.92-18.8,13.8a63.32,63.32,0,0,1-17.16-.61c-11.13-1.81-20.41,1.79-24.94,12.09-8.56,19.47-17.05,39-24.31,59-8,22.08-7.87,44.52,1.31,66.52Z" transform="translate(-785.13)"/><path d="M933.71,0c-6.06,11.85-16.64,13.94-28.54,13.37-6.33-.31-13-1.73-18.89-.11-4.72,1.31-10.13,5.58-12.25,10-11.52,23.85-23.12,47.75-28.75,74a85.41,85.41,0,0,0,3.19,48,30.37,30.37,0,0,1,1.43,11.15,71.9,71.9,0,0,1-11.42-43.24,177.6,177.6,0,0,1,3-23.38c1.54-8.43-.31-13.58-7.9-17.84a68.42,68.42,0,0,0-10.52-4.48c-13.15-4.73-20-14.57-23.1-27.7,6.81,1.19,13.34,2,19.71,3.51,9.56,2.29,14.7,8.93,17.29,18.24,1.42,5.09,4.07,9.85,6.16,14.76l2-.64c5.74-13.83,11.39-27.7,17.25-41.48,5.09-12,12-22.18,25.07-27.09,3.36-1.26,5.93-4.62,8.86-7Z" transform="translate(-785.13)"/><path d="M853.07,720c.38-3.79.95-7.57,1.11-11.37.29-6.81.93-13.67.34-20.42-1.19-13.54,9-33.45,21.49-40,3.87,14.37,5.69,28.5-6.54,39.75-8.18,7.53-12,16.39-12.45,27.12A29.32,29.32,0,0,1,856,720Z" transform="translate(-785.13)"/><path d="M881.87,0c-1.07,4.87-2.14,9.74-8.53,11.3,1-3.93,1.87-7.62,2.77-11.3Z" transform="translate(-785.13)"/><path d="M811.5,270.22c14.35-5.62,32.17.48,44.57,14.46,3.07,3.47,7.09,6.12,10.78,9s7.93,5.42,11.44,8.63,6.35,7,10.57,11.81c3-15.08,17-22.89,20.22-38,3.34-15.45,19.93-27.12,35.71-28.19-1.6,6-2.82,12-4.81,17.72-3.27,9.44-10.25,15.74-19.41,19C904.75,290.23,898,303,893.18,317.45a7.21,7.21,0,0,0-.18,4.16c5.31,17.37,1.06,34-3.41,50.73-5,18.66-11.37,37.09-10.64,56.85a82.34,82.34,0,0,1-1,17.7c-4.14-11.64-4.54-23.68-2.45-35.44,2.54-14.3,7-28.24,9.82-42.51a35.28,35.28,0,0,0-.85-16.81c-3.49-10.88-11-13.13-22-10.11a108.28,108.28,0,0,1-26.57,3.36c-4.34.08-8.74-3-13.12-4.63l-.46-2.65c7.11-3.89,13.86-9,21.45-11.28,5.43-1.65,12.82-1.33,17.86,1.14,9.94,4.87,18.87,11.84,27.94,17.76,4.08-11.49-3.87-31.72-17-42.79-8.84-7.46-19.24-8.87-30-10.42C827.36,290.32,819.64,284.61,811.5,270.22Z" transform="translate(-785.13)"/><path d="M872.86,581.37c4.12-11.16,7.93-22.45,12.45-33.45,9.28-22.61,8.81-45.12.37-67.79-5.71-15.35-5.69-30.83-.93-46.46,3.19-10.45,9.1-18.47,19.32-22.69,7.63-3.14,10.14-8.88,9.53-16.52-1.36-16.88,4-31,17-42.24,10.48,21.64,8.58,30.64-9.1,46.43-2.58,2.3-4.28,5.58-7.67,10.13,10.41,1.17,18.35,2.39,26.32,2.87,15.46.93,28,10.45,32.28,25-15.94,4-30.61,0-38.72-13.68-7.72-13.05-27.32-11.44-35.42-2.39-11.54,12.9-13.89,28-11.52,44.25a114.54,114.54,0,0,0,5.09,20.08c7.53,22.14,5.2,43.85-2.27,65.39-2.66,7.68-5.31,15.38-8.51,22.84-1.48,3.43-4.28,6.3-6.48,9.43Z" transform="translate(-785.13)"/><path d="M886,526.54c-2.53-6.39-4.36-13.18-7.72-19.1-9.41-16.54-26.47-23.23-45.59-18.67-3.48.83-7.05,1.37-10.47,2.37-15.4,4.5-26.84-2.16-37.11-12.66,10.93-10.32,29.29-10.5,40.51-.57,7.5,6.64,7.5,6.64,19.51,3.21-2.58-2.21-4.41-4.05-6.49-5.54-13.1-9.38-17.28-26.53-9.43-39.08,16.45,4.39,24.14,17,20.45,36-1.41,7.31,1,9.93,7.15,11.92,17.12,5.51,26.47,18,30.27,35.08.52,2.31.07,4.83.07,7.25Z" transform="translate(-785.13)"/><path d="M881.18,301.17c-1.12-1.68-3.25-3.39-3.19-5,.37-10.64-5.24-18.68-11-26.66-16.11-22.35-22-47.42-19.69-74.56.81-9.55,5.28-17.08,14-22.06,2.62-1.5,4.61-4.6,6.17-7.37a34.83,34.83,0,0,1,44.06-15.29c-4.95,15.53-17.14,21.64-31.8,23.86-22.87,3.47-30.92,14-27.76,37.18,2.77,20.3,7.87,39.55,19.89,56.88,5.26,7.59,7.37,17.4,10.67,26.3.68,1.81.3,4,.41,6.05Z" transform="translate(-785.13)"/><path d="M875.9,78.34c5.75,17.41,2.35,31.66-11.14,45.44-10.25,10.47-10.36,25.6-6.15,39.91.2.68.62,1.3.87,2s.41,1.28.61,1.92c-4.42,1.28-7.16-.81-7-6.53.24-9.29,1.35-18.55,1.92-27.84.27-4.22.82-8.59,0-12.67C852.36,106.35,863.05,84.39,875.9,78.34Z" transform="translate(-785.13)"/><path d="M853.83,171.65c-7.88-7.45-16-4.18-24.43-2.2-14.35,3.37-27.13-2.4-35-14.8C813,139.36,842.25,153.31,853.83,171.65Z" transform="translate(-785.13)"/></svg>